<?xml version="1.0" encoding="utf-8"?>
<!-- Generator: Adobe Illustrator 22.1.0, SVG Export Plug-In . SVG Version: 6.00 Build 0)  -->
<svg version="1.1" id="Layer_1" xmlns="http://www.w3.org/2000/svg" xmlns:xlink="http://www.w3.org/1999/xlink" x="0px" y="0px"
	 viewBox="0 0 465.5 420.7" style="enable-background:new 0 0 465.5 420.7;" xml:space="preserve">
<style type="text/css">
	.st0{fill:#F1E321;}
	.st1{fill:#8A6E63;}
	.st2{fill:#604D49;}
	.st3{fill:#755D56;}
	.st4{fill:#3D2722;}
	.st5{fill:#E7E9EB;}
	.st6{fill:#FF9EFF;}
	.st7{fill:#F5D4B0;}
	.st8{fill:none;stroke:#00D1BD;stroke-width:4.6394;stroke-linecap:round;stroke-miterlimit:10;}
	.st9{fill:none;stroke:#7F50FF;stroke-width:4.6394;stroke-linecap:round;stroke-miterlimit:10;}
	.st10{fill:none;stroke:#E6D821;stroke-width:4.6394;stroke-linecap:round;stroke-miterlimit:10;}
	.st11{fill:none;stroke:#FF00FF;stroke-width:4.6394;stroke-linecap:round;stroke-miterlimit:10;}
	.st12{fill:none;stroke:#49A8F6;stroke-width:4.6394;stroke-linecap:round;stroke-miterlimit:10;}
</style>
<title>Asset 1</title>
<g id="Layer_2_1_">
	<g id="Layer_1-2">
		<circle class="st0" cx="323.3" cy="196.8" r="124.6"/>
		<path class="st1" d="M337.5,238.1c0,0,3.8,58.6,7.6,62.7c4,4.2,50.2,28.1,57.8,31.7c14,6.5,29,17.9,34.5,30.2
			c7.6,16.6,28.1,58,28.1,58h-47.1l-9.7-15.4l-7,15.4h-203c0,0,14.2-43.8,21.4-58c6.6-12.9,17.3-29.2,31.8-37.1
			c8.3-4.5,43.9-21.8,45.1-26s5.7-61.5,5.7-61.5L337.5,238.1z"/>
		<path class="st0" d="M299.4,0.8c27.2,49.3,9.3,111.4-40,138.6c-23.1,12.8-50.2,16.1-75.7,9.2c21.5,56.6,84.8,85.1,141.5,63.6
			s85.1-84.8,63.6-141.5C374.4,32.6,339.9,5.7,299.4,0.8z"/>
		<path class="st2" d="M299,282.8c14.1,2.4,28.5,1,41.9-4c-2-18.1-3.5-40.6-3.5-40.6h-34.6C302.8,238.1,300.8,264.5,299,282.8z"/>
		<circle class="st3" cx="295.9" cy="162.8" r="87.7"/>
		<circle class="st1" cx="289.8" cy="156.7" r="81.6"/>
		<circle class="st4" cx="325.9" cy="133" r="10.9"/>
		<circle class="st4" cx="244" cy="133" r="10.9"/>
		<path class="st5" d="M312.1,167.6c0.3,15.4-11.9,28-27.3,28.3s-28-11.9-28.3-27.3c0-0.4,0-0.7,0-1.1H312.1z"/>
		<path class="st0" d="M312.1,50.2c0-17.3-4.4-34.3-12.8-49.4c-60.1-7.3-114.7,35.4-122,95.5c-0.5,4.5-0.8,8.9-0.8,13.4
			c0,13.3,2.4,26.5,7.1,38.9c54.4,14.6,110.3-17.7,124.9-72.1C311,67.9,312.1,59.1,312.1,50.2z"/>
		<circle class="st1" cx="373.4" cy="158.1" r="22.6"/>
		<path class="st6" d="M402.9,332.5c14,6.5,29,17.9,34.5,30.2c7.6,16.6,28.1,58,28.1,58h-47.1l-9.7-15.4l-7,15.4h-203
			c0,0,14.2-43.8,21.4-58c6.6-12.9,17.3-29.2,31.8-37.1C260.2,321.2,395.3,328.9,402.9,332.5z"/>
		<path class="st7" d="M57.1,208C25.6,208,0,233.6,0,265.1s25.6,57.1,57.1,57.1s57.1-25.6,57.1-57.1l0,0
			C114.2,233.6,88.6,208,57.1,208z M57.1,313c-26.5,0-47.9-21.4-47.9-47.9s21.4-47.9,47.9-47.9s47.9,21.4,47.9,47.9c0,0,0,0,0,0.1
			C105,291.6,83.6,313,57.1,313L57.1,313z"/>
		<path class="st6" d="M57.1,217.2c-26.5,0-47.9,21.4-47.9,47.9C9.1,291.6,30.6,313,57,313s47.9-21.4,47.9-47.9c0,0,0,0,0,0
			C105,238.7,83.6,217.2,57.1,217.2z M57.1,280.3c-8.4,0-15.2-6.8-15.2-15.2c0-8.4,6.8-15.2,15.2-15.2s15.2,6.8,15.2,15.2
			C72.3,273.5,65.5,280.3,57.1,280.3C57.1,280.3,57.1,280.3,57.1,280.3L57.1,280.3z"/>
		<line class="st8" x1="38.8" y1="231.4" x2="35.8" y2="241.1"/>
		<line class="st8" x1="27.3" y1="286.9" x2="17.7" y2="283.4"/>
		<line class="st8" x1="90.3" y1="241.6" x2="87.4" y2="251.4"/>
		<line class="st9" x1="48.6" y1="231.8" x2="57.9" y2="236.3"/>
		<line class="st9" x1="59.7" y1="294" x2="64.5" y2="302.9"/>
		<line class="st9" x1="27.9" y1="261.2" x2="19" y2="270.6"/>
		<line class="st10" x1="20" y1="255.1" x2="29.3" y2="250.9"/>
		<line class="st11" x1="42.2" y1="295" x2="32.4" y2="297.6"/>
		<line class="st11" x1="88.7" y1="233.3" x2="78.9" y2="235.9"/>
		<line class="st10" x1="62.2" y1="222.7" x2="68.4" y2="230.8"/>
		<line class="st12" x1="40.9" y1="277.4" x2="30.7" y2="277.4"/>
		<line class="st12" x1="84" y1="289.3" x2="73.9" y2="289.3"/>
		<path class="st1" d="M163.5,420.7l-46.2-94.2c0,0,0-31.8-4.2-40.9s-24-19.3-32.3-22.3s-6.9,5.8,1,11.8c8.2,6.2,18.6,14,18.8,22.1
			s-15.7,22-35.4,24.5l31.2,23.8l21,75.3L163.5,420.7z"/>
		<path class="st2" d="M75.1,329.2c12.8-2.5,24.1-9.1,31.4-21.4c-4.1-2.4-4.4-7.1-6-11.5c0,0.2,0.1,0.5,0.1,0.7
			c0.1,8.1-15.7,22-35.4,24.5L75.1,329.2z"/>
	</g>
</g>
</svg>
